<?xml version="1.0" encoding="utf-8"?>
<!-- Generator: Adobe Illustrator 27.9.1, SVG Export Plug-In . SVG Version: 6.00 Build 0)  -->
<svg version="1.1" id="Layer_1" xmlns="http://www.w3.org/2000/svg" xmlns:xlink="http://www.w3.org/1999/xlink" x="0px" y="0px"
	 viewBox="0 0 512 512" style="enable-background:new 0 0 512 512;" xml:space="preserve">
<style type="text/css">
	.st0{fill:#FFFFFF;}
</style>
<path class="st0" d="M432,448c-4.2,0-8.3-1.7-11.3-4.7l-352-352c-6.1-6.4-5.8-16.5,0.6-22.6c6.2-5.9,15.9-5.9,22,0l352,352
	c6.2,6.3,6.2,16.4,0,22.6C440.3,446.3,436.2,448,432,448z M248,315.9l-51.8-51.8c-0.8-0.8-2.1-0.8-2.8,0c-0.4,0.4-0.6,1.1-0.6,1.7
	c4.3,27.6,25.9,49.2,53.5,53.5c1.1,0.1,2.1-0.6,2.3-1.7C248.6,316.9,248.4,316.3,248,315.9L248,315.9z M264,196.1l51.9,51.9
	c0.8,0.8,2,0.8,2.8,0c0.4-0.4,0.7-1.1,0.6-1.7c-4.3-27.6-25.9-49.3-53.5-53.6c-1.1-0.2-2.1,0.6-2.3,1.7
	C263.3,195.1,263.5,195.7,264,196.1z"/>
<path class="st0" d="M491,273.4c6.8-10.6,6.7-24.2-0.1-34.8c-26.5-40.9-60.8-75.7-99.3-100.5C349,110.6,302,96,255.7,96
	c-24.4,0-48.7,4-71.8,11.8c-2.1,0.7-3.2,3-2.5,5.1c0.2,0.6,0.5,1.1,1,1.6l47.2,47.2c1,1,2.5,1.4,3.8,1.1
	c51.5-12.6,103.4,19,116,70.5c3.6,14.9,3.6,30.5,0,45.5c-0.3,1.4,0.1,2.8,1,3.8l68,68c1.5,1.5,3.8,1.6,5.4,0.2
	C449.9,328.5,472.6,302.4,491,273.4L491,273.4z M256,352c-53,0-96-43-96-96c0-7.6,0.9-15.2,2.7-22.6c0.3-1.4-0.1-2.8-1.1-3.8
	l-66.8-66.9c-1.5-1.5-3.8-1.6-5.4-0.2c-24.4,20.8-47,46.1-67.7,75.7c-7.4,10.6-7.7,24.7-0.6,35.5c26.4,41.3,60.4,76.1,98.3,100.6
	C162.1,402,207.9,416,255.7,416c24.7-0.1,49.2-4,72.6-11.5c2.1-0.7,3.3-2.9,2.6-5c-0.2-0.6-0.5-1.2-1-1.6l-47.5-47.5
	c-1-1-2.4-1.4-3.8-1C271.2,351.1,263.6,352,256,352z"/>
</svg>
