<?xml version="1.0" encoding="utf-8"?>
<!-- Generator: Adobe Illustrator 27.9.1, SVG Export Plug-In . SVG Version: 6.00 Build 0)  -->
<svg version="1.1" id="Layer_1" xmlns="http://www.w3.org/2000/svg" xmlns:xlink="http://www.w3.org/1999/xlink" x="0px" y="0px"
	 viewBox="0 0 512 512" style="enable-background:new 0 0 512 512;" xml:space="preserve">
<style type="text/css">
	.st0{fill:#FFFFFF;}
</style>
<circle class="st0" cx="256" cy="256" r="64"/>
<path class="st0" d="M490.8,238.6c-26.5-40.9-60.8-75.7-99.3-100.5C349,110.6,302,96,255.7,96c-42.5,0-84.3,12.2-124.3,36.1
	c-40.7,24.4-77.6,60.1-109.7,106.1c-7.4,10.6-7.7,24.7-0.6,35.5c26.4,41.3,60.4,76.1,98.3,100.6C162,402,207.9,416,255.7,416
	c46.7,0,93.8-14.4,136.2-41.7c38.5-24.8,72.7-59.7,99.1-100.9C497.7,262.7,497.7,249.2,490.8,238.6L490.8,238.6z M256,352
	c-53,0-96-43-96-96s43-96,96-96s96,43,96,96C351.9,309,309,351.9,256,352z"/>
</svg>
